<?xml version="1.0" encoding="utf-8"?>
<!-- Generator: Adobe Illustrator 19.1.0, SVG Export Plug-In . SVG Version: 6.00 Build 0)  -->
<svg version="1.1" id="Warstwa_1" xmlns="http://www.w3.org/2000/svg" xmlns:xlink="http://www.w3.org/1999/xlink" x="0px" y="0px"
	 viewBox="0 0 32 32" style="enable-background:new 0 0 32 32;" xml:space="preserve">
<style type="text/css">
	.st0{fill:#273675;}
</style>
<g>
	<path class="st0" d="M3.8,8.9c-1.7,0-3.1,1.4-3.1,3.1S2.1,15,3.8,15c1.7,0,3.1-1.4,3.1-3.1S5.5,8.9,3.8,8.9z"/>
	<path class="st0" d="M19.8,8.9c-1.7,0-3.1,1.4-3.1,3.1s1.4,3.1,3.1,3.1c1.7,0,3.1-1.4,3.1-3.1S21.5,8.9,19.8,8.9z"/>
	<path class="st0" d="M11.8,8.9c-1.7,0-3.1,1.4-3.1,3.1s1.4,3.1,3.1,3.1c1.7,0,3.1-1.4,3.1-3.1S13.5,8.9,11.8,8.9z"/>
	<path class="st0" d="M27.8,8.9c-1.7,0-3.1,1.4-3.1,3.1s1.4,3.1,3.1,3.1c1.7,0,3.1-1.4,3.1-3.1S29.5,8.9,27.8,8.9z"/>
	<path class="st0" d="M3.8,17.1c-1.7,0-3.1,1.4-3.1,3.1c0,1.7,1.4,3.1,3.1,3.1c1.7,0,3.1-1.4,3.1-3.1C6.8,18.5,5.5,17.1,3.8,17.1z"
		/>
	<path class="st0" d="M19.8,17.1c-1.7,0-3.1,1.4-3.1,3.1c0,1.7,1.4,3.1,3.1,3.1c1.7,0,3.1-1.4,3.1-3.1
		C22.9,18.5,21.5,17.1,19.8,17.1z"/>
	<path class="st0" d="M11.8,17.1c-1.7,0-3.1,1.4-3.1,3.1c0,1.7,1.4,3.1,3.1,3.1c1.7,0,3.1-1.4,3.1-3.1
		C14.9,18.5,13.5,17.1,11.8,17.1z"/>
	<path class="st0" d="M27.8,17.1c-1.7,0-3.1,1.4-3.1,3.1c0,1.7,1.4,3.1,3.1,3.1c1.7,0,3.1-1.4,3.1-3.1
		C30.9,18.5,29.5,17.1,27.8,17.1z"/>
	<circle class="st0" cx="3.8" cy="28.4" r="3.1"/>
	<circle class="st0" cx="19.8" cy="28.4" r="3.1"/>
	<path class="st0" d="M11.8,25.3c-1.7,0-3.1,1.4-3.1,3.1s1.4,3.1,3.1,3.1c1.7,0,3.1-1.4,3.1-3.1S13.5,25.3,11.8,25.3z"/>
	<circle class="st0" cx="27.8" cy="28.4" r="3.1"/>
	<path class="st0" d="M29.2,0.5H2.8C1.3,0.5,0,1.8,0,3.3c0,1.5,1.2,2.8,2.8,2.8h26.4c1.5,0,2.8-1.3,2.8-2.8
		C32,1.8,30.7,0.5,29.2,0.5z"/>
</g>
</svg>
