<?xml version="1.0" encoding="utf-8"?>
<!-- Generator: Adobe Illustrator 19.1.0, SVG Export Plug-In . SVG Version: 6.00 Build 0)  -->
<svg version="1.1" id="Warstwa_1" xmlns="http://www.w3.org/2000/svg" xmlns:xlink="http://www.w3.org/1999/xlink" x="0px"
	y="0px" viewBox="0 0 32 32" style="enable-background:new 0 0 32 32;" xml:space="preserve">
	<style type="text/css">
		.st0 {
			fill: #ed1c24;
		}
	</style>
	<g>
		<path class="st0" d="M16.1,25.5c-0.5,0-1.1-0.2-1.5-0.6c-0.8-0.8-0.8-2.1,0-2.9l6-6l-6-6c-0.8-0.8-0.8-2.1,0-2.9s2.1-0.8,2.9,0
		l7.5,7.4v2.9l-7.4,7.4C17.1,25.3,16.6,25.5,16.1,25.5z" />
	</g>
	<path class="st0" d="M18.7,32H6.8l-1.4-1.3V1.3L6.8,0h11.9c0.9,0,1.6,0.7,1.6,1.6s-0.7,1.6-1.6,1.6H8.6V29h10.1
	c0.9,0,1.6,0.7,1.6,1.6S19.6,32,18.7,32z" />
</svg>