<?xml version="1.0" encoding="utf-8"?>
<!-- Generator: Adobe Illustrator 19.1.0, SVG Export Plug-In . SVG Version: 6.00 Build 0)  -->
<svg version="1.1" id="Warstwa_1" xmlns="http://www.w3.org/2000/svg" xmlns:xlink="http://www.w3.org/1999/xlink" x="0px"
	y="0px" viewBox="0 0 32 32" style="enable-background:new 0 0 32 32;" xml:space="preserve">
	<style type="text/css">
		.st0 {
			fill: #000000;
		}
	</style>
	<path class="st0" d="M18.7,0C11.4,0,5.4,6,5.4,13.3c0,2.7,0.8,5.2,2.2,7.3c-0.1,0.1-0.2,0.1-0.2,0.2l-6.6,6.6c-1.1,1.1-1.1,2.8,0,3.9
	C1.3,31.7,2,32,2.7,32c0.7,0,1.4-0.3,1.9-0.8l6.6-6.6c0.1-0.1,0.1-0.1,0.2-0.2c2.1,1.4,4.6,2.2,7.3,2.2c7.3,0,13.3-6,13.3-13.3
	C32,6,26,0,18.7,0z M18.7,21.2c-4.3,0-7.9-3.5-7.9-7.9s3.5-7.9,7.9-7.9c4.3,0,7.9,3.5,7.9,7.9S23,21.2,18.7,21.2z" />
</svg>