<?xml version="1.0" encoding="utf-8"?>
<!-- Generator: Adobe Illustrator 19.1.0, SVG Export Plug-In . SVG Version: 6.00 Build 0)  -->
<svg version="1.1" id="Warstwa_1" xmlns="http://www.w3.org/2000/svg" xmlns:xlink="http://www.w3.org/1999/xlink" x="0px"
	y="0px" viewBox="0 0 32 32" style="enable-background:new 0 0 32 32;" xml:space="preserve">
	<style type="text/css">
		.st0 {
			fill: #ed1c24;
		}
	</style>
	<g>
		<path class="st0" d="M9.7,25.5c-0.5,0-1-0.2-1.4-0.6c-0.8-0.8-0.8-2.1,0-2.9l6-6l-6-6c-0.8-0.8-0.8-2.1,0-2.9s2.1-0.8,2.9,0
		l7.5,7.5v2.9L11.3,25C10.7,25.3,10.2,25.5,9.7,25.5z" />
	</g>
	<path class="st0" d="M24.6,32H12.7c-0.9,0-1.6-0.7-1.6-1.6s0.7-1.6,1.6-1.6h10.1V3.2H12.7c-0.9,0-1.6-0.7-1.6-1.6S11.8,0,12.7,0
	h11.9L26,1.3v29.4L24.6,32z" />
</svg>